# xmcd CD database file
#
# Track frame offsets:
#	150
#	28050
#	59925
#	84750
#	118725
#	142350
#	178425
#	197175
#	219150
#	239700
#	275775
#
# Disc length: 4011 seconds
#
# Revision: 0
# Processed by: cddbd v1.5.2PL0 Copyright (c) Steve Scherf et al.
# Submitted via: CDex 1.51
#
DISCID=ba0fa90b
DTITLE=Daniel Szabo - Daniel Szabo
DYEAR=2000
DGENRE=Jazz
TTITLE0=Behind the sun CD
TTITLE1=Dance
TTITLE2=Darn that dream
TTITLE3=Midnight
TTITLE4=Little simple
TTITLE5=Recurring dream
TTITLE6=Blues
TTITLE7=Valse
TTITLE8=Rhythm a ning
TTITLE9=Trilogie
TTITLE10=Very early
EXTD=YEAR: 2000
EXTT0=
EXTT1=
EXTT2=
EXTT3=
EXTT4=
EXTT5=
EXTT6=
EXTT7=
EXTT8=
EXTT9=
EXTT10=
PLAYORDER=
